<?xml version="1.0" encoding="UTF-8"?>
<svg width="1920" height="400" version="1.1" viewBox="0 0 508 105.83" xml:space="preserve" xmlns="http://www.w3.org/2000/svg">
    <defs>
    <style>
      .primary { fill: var(--primary-color, #f5f5f5); }
      .secondary { fill: var(--secondary-color, #c8e6c9); }
    </style>
        <clipPath id="a">
            <path d="m56.407 49.85h119.13v129.21h-119.13z" clip-rule="evenodd" stroke-width="1.5281"/>
        </clipPath>
    </defs>
    <g transform="translate(1.4838 .20221)">
        <path class="primary" d="m65.341 74.541c0 1.3059 0.23586 2.5622 0.70758 3.7687s1.1434 2.2715 2.015 3.1949c0.87161 0.92343 1.8768 1.635 3.0157 2.1348 1.1388 0.49976 2.3246 0.74965 3.5572 0.74966 1.2327-1.4e-5 2.4184-0.2499 3.5572-0.74966 1.1388-0.49975 2.144-1.2114 3.0157-2.1348 0.87162-0.92344 1.5433-1.9884 2.015-3.1949 0.47172-1.2065 0.70758-2.4628 0.70758-3.7687s-0.23586-2.5622-0.70757-3.7687c-0.47172-1.2065-1.1434-2.2715-2.015-3.1949-0.87162-0.92344-1.8768-1.635-3.0157-2.1348-1.1388-0.49976-2.3246-0.74963-3.5572-0.74963-1.2327 0-2.4184 0.24987-3.5572 0.74963s-2.1441 1.2114-3.0157 2.1348c-0.87163 0.92343-1.5433 1.9884-2.015 3.1949-0.47172 1.2065-0.70758 2.4628-0.70758 3.7687z"/>
        <path class="secondary" d="m40.875 28.619c0 1.3059 0.23586 2.5622 0.70758 3.7687 0.47173 1.2065 1.1434 2.2715 2.015 3.1949 0.87163 0.92343 1.8769 1.635 3.0157 2.1348 1.1388 0.49976 2.3246 0.74964 3.5572 0.74965 1.2327-7e-6 2.4184-0.24989 3.5572-0.74965s2.144-1.2114 3.0157-2.1348c0.87162-0.92344 1.5433-1.9884 2.015-3.1949 0.47172-1.2065 0.70757-2.4628 0.70756-3.7687 1.3e-5 -1.3059-0.23584-2.5622-0.70756-3.7687-0.47171-1.2065-1.1434-2.2715-2.015-3.1949-0.87163-0.92344-1.8768-1.635-3.0157-2.1348-1.1388-0.49976-2.3246-0.74964-3.5572-0.74964s-2.4184 0.24988-3.5572 0.74964-2.144 1.2114-3.0157 2.1348c-0.87161 0.92344-1.5433 1.9884-2.015 3.1949-0.47172 1.2065-0.70758 2.4628-0.70758 3.7687z"/>
        <path class="primary" d="m65.427 10.843c9.2594 3.4591 20.519 10.911 25.83 20.892 8.3163 15.628 13.41 37.012 5.412 53.463-4.157 8.55-12.879 12.746-21.986 12.879-12.174 0.17818-26.141-6.9378-35.578-16.253-9.0816-8.9647-15.69-25.715-17.066-35.004-1.4499-9.7866-0.3757-13.377 0.89165-13.366 1.2674 0.01099-0.9244 20.869 20.51 43.633 10.893 11.569 26.799 16.435 39.514 11.224 5.855-2.3995 9.5226-11.955 10.117-16.772 0.59424-4.817 0.21906-14.423-4.4279-15.053-16.741-2.2689-34.592-4.3258-49.815-13.106-4.6301-2.6705-8.3272-8.2305-8.9789-13.755-0.78023-6.614 1.4114-14.936 6.5958-18.745 7.9278-5.8244 19.875-3.4404 28.982-0.038367zm-15.937 2.3133c-2.5256-0.01976-4.6991 0.44197-6.6625 1.2162-3.9267 1.5485-6.4351 5.0933-7.6433 8.884-1.226 3.8465-0.56171 8.4267 1.0176 12.127 4.8997 11.48 37.838 16.147 50.589 17.677 8.7481 1.05-1.6256-17.279-7.3449-24.15-5.7193-6.8708-14.438-11.778-21.181-14.082-3.3717-1.152-6.2495-1.6532-8.7751-1.673z"/>
        <path class="primary" d="m453.13 75.706q2.739 0.34238 6.0772 0.68475 3.3382 0.25678 6.5051 0.25678 5.6492 0 7.6178-1.4551 1.9687-1.4551 1.9687-4.6221 0-1.4551-0.42797-2.3966-0.34238-1.0271-1.3695-1.7119-1.0271-0.77034-2.8246-1.3695-1.7119-0.59916-4.4509-1.2839-2.9958-0.77034-5.5636-1.5407-2.4822-0.85594-4.2797-2.2254-1.7975-1.3695-2.8246-3.4238-0.94153-2.1398-0.94153-5.478 0-6.9331 4.0229-9.8433 4.0229-2.9958 11.298-2.9958 1.4551 0 3.167 0.17119 1.7119 0.08559 3.3382 0.34238 1.6263 0.17119 2.9958 0.51356 1.4551 0.25678 2.3966 0.59916 0.94153 0.42797 1.2839 0.94153 0.42797 0.51356 0.42797 1.6263v3.6805q-3.8517-0.42797-6.7619-0.59916-2.8246-0.25678-5.1356-0.25678-4.8788 0-6.8475 1.2839-1.8831 1.2839-1.8831 4.1085 0 1.5407 0.51356 2.5678 0.51356 0.94153 1.6263 1.6263 1.1127 0.68475 2.9102 1.2839 1.7975 0.51356 4.2797 1.1127 2.9102 0.77034 5.3924 1.6263 2.4822 0.77034 4.2797 2.1398 1.7975 1.2839 2.739 3.5093 1.0271 2.1398 1.0271 5.5636 0 3.7661-1.1983 6.4195-1.1127 2.5678-3.2526 4.1941-2.1398 1.6263-5.1356 2.311-2.9102 0.68475-6.5051 0.68475-1.5407 0-3.4238-0.17119-1.7975-0.08559-3.5949-0.34238-1.7975-0.25678-3.3382-0.51356-1.5407-0.34238-2.3966-0.68475-1.0271-0.42797-1.3695-1.0271-0.34238-0.68475-0.34238-1.6263z" stroke-width=".4458"/>
        <path class="primary" transform="matrix(-.40231 0 0 .41415 481.14 11.272)" d="m109.34 54.856c-13.904 4.9235-30.812 15.531-38.788 29.737-12.488 22.244-20.138 52.681-8.1268 76.097 6.2423 12.17 19.339 18.142 33.015 18.332 18.281 0.25362 39.255-9.875 53.425-23.134 13.637-12.76 23.561-36.601 25.627-49.823 2.1773-13.93 0.56416-19.04-1.3389-19.024-1.9031 0.01564 1.3881 29.704-30.799 62.106-16.358 16.466-40.242 23.393-59.335 15.976-8.792-3.4154-14.299-17.016-15.192-23.872-0.89233-6.8564-0.32894-20.529 6.6491-21.425 25.138-3.2295 51.945-6.1572 74.804-18.655 6.9527-3.8011 12.504-11.715 13.483-19.578 1.1716-9.4141-2.1194-21.26-9.9044-26.681-11.905-8.2903-29.846-4.8969-43.52-0.05461l-1e-5 4e-6zm23.931 3.2926c3.7925-0.02813 7.0564 0.62909 10.005 1.7312 5.8964 2.2041 9.6632 7.2497 11.477 12.645 1.8409 5.475 0.84348 11.994-1.5281 17.261-7.3575 16.34-56.818 22.983-75.966 25.161-13.136 1.4946 2.4411-24.595 11.029-34.375 8.5882-9.7797 21.68-16.764 31.806-20.043 5.0631-1.6397 9.3844-2.3531 13.177-2.3812z" clip-path="url(#a)"/>
        <path class="primary" d="m419.62 82.553q-1.9687 0.51356-3.7661 0.77034-1.7119 0.25678-3.5949 0.25678-6.1628 0-8.9874-2.739-2.739-2.739-2.739-8.645v-26.106h-2.9958q-2.0542 0-2.0542-1.9687v-4.8788h5.2212l0.42797-11.298h5.9916q2.0542 0 2.0542 1.9687v9.3297h8.3882q0.94153 0 1.4551 0.51356 0.59916 0.51356 0.59916 1.4551v4.8788h-10.442v25.678q0 2.311 0.77035 3.5949 0.77034 1.2839 3.0814 1.2839 1.4551 0 2.3966 0 1.0271-0.08559 1.8831-0.08559 2.311 0 2.311 1.9687z" stroke-width=".4458"/>
        <path class="primary" d="m361.97 82.81q-2.0542 0-2.0542-1.9687v-41.599h5.2212q0.94153 0 1.5407 0.42797 0.68475 0.42797 0.85594 1.7119l0.34238 2.6534q5.3068-5.7348 13.609-5.7348 7.0187 0 10.014 4.1085 2.9958 4.0229 2.9958 10.785v29.615h-6.5907q-0.94153 0-1.5407-0.51356-0.51356-0.51356-0.51356-1.4551v-26.962q0-4.4509-1.8831-6.3339-1.8831-1.9687-5.478-1.9687-3.5094 0-5.9916 1.4551-2.4822 1.3695-3.9373 2.8246v32.954z" stroke-width=".4458"/>
        <path class="primary" d="m330.93 64.236q0.17119 3.4238 0.77035 5.8204 0.59915 2.3966 1.9686 3.9373 1.4551 1.4551 3.8517 2.1398 2.3966 0.68475 6.1628 0.68475 3.3382 0 6.0772-0.34238t3.7661-0.34238q1.9686 0 1.9686 1.8831v3.5949q-2.0542 0.85594-5.6492 1.4551-3.5093 0.68475-8.1314 0.68475-4.8788 0-8.4738-1.1983t-5.9916-3.8517q-2.311-2.739-3.4238-7.0187-1.1127-4.3653-1.1127-10.528t1.1127-10.528 3.3382-7.1043q2.311-2.8246 5.6492-4.0229 3.3382-1.2839 7.789-1.2839 4.9644 0 8.1314 1.4551 3.167 1.3695 4.9644 3.7661 1.7975 2.3966 2.4822 5.6492 0.68475 3.167 0.68475 6.8475 0 2.4822-0.25679 4.7933-0.25678 2.311-0.68475 3.5093zm18.06-6.0772q0.0856-0.85594 0.0856-1.2839t0-1.1127q0-5.478-1.7119-8.217-1.6263-2.8246-6.5051-2.8246-2.9102 0-4.7932 0.94153-1.8831 0.94153-2.9958 2.6534-1.1127 1.7119-1.6263 4.2797-0.42797 2.4822-0.51357 5.5636z" stroke-width=".4458"/>
        <path class="primary" d="m288.17 82.81q-0.94153 0-1.5407-0.51356-0.51356-0.51356-0.51356-1.4551v-26.962q0-4.4509-1.7975-6.3339-1.7975-1.9687-5.1356-1.9687-3.2526 0-5.6492 1.3695-2.311 1.3695-3.7661 2.8246v33.039h-6.5907q-2.0542 0-2.0542-1.9687v-41.599h5.2212q0.94153 0 1.5407 0.42797 0.68475 0.42797 0.85594 1.7119l0.34237 2.6534q2.3966-2.6534 5.478-4.1941 3.167-1.5407 7.5323-1.5407 3.5949 0 6.5051 1.3695 2.9958 1.3695 4.5365 4.8788 2.0542-2.311 5.478-4.2797t8.5594-1.9687q5.9916 0 9.2441 3.5949 3.3382 3.5093 3.3382 11.298v29.615h-6.6763q-1.9687 0-1.9687-1.9687v-26.962q0-4.4509-1.7975-6.3339-1.7975-1.9687-5.1356-1.9687-3.4238 0-5.8204 1.5407-2.3966 1.4551-3.8517 2.9102 0.25678 2.2254 0.25678 4.4509v28.332z" stroke-width=".4458"/>
        <path class="primary" d="m237.78 60.788q-2.5678 0-4.2797 0.59916-1.7119 0.51356-2.739 1.5407-0.94154 0.94153-1.3695 2.311-0.34238 1.3695-0.34238 2.9958 0 3.9373 1.8831 5.7348t5.7348 1.7975q3.4238 0 5.906-1.2839 2.4822-1.3695 4.2797-3.0814v-10.614zm-3.3382 21.57q-6.6763 0-9.9289-3.6805t-3.2526-10.186q0-4.0229 1.1983-6.6763 1.2839-2.6534 3.5093-4.1941 2.311-1.6263 5.3924-2.2254 3.0814-0.68475 6.6763-0.68475h8.8162v-2.9102q0-4.4509-2.311-6.0772t-7.8746-1.6263q-3.7661 0-6.7619 0.42797-2.9958 0.34238-3.9373 0.34238-1.1127 0-1.6263-0.51356-0.42797-0.59916-0.42797-1.4551v-3.6805q2.9958-0.94153 6.7619-1.5407 3.7661-0.59916 7.7034-0.59916 4.8788 0 8.1314 1.1127 3.2526 1.0271 5.2212 2.9958 1.9687 1.9687 2.739 4.7933 0.85594 2.8246 0.85594 6.2483v29.359h-5.2212q-1.4551 0-1.7975-0.59916-0.34238-0.68475-0.51357-1.5407l-0.34237-2.5678q-2.2254 2.1398-5.3924 3.8517-3.0814 1.6263-7.6178 1.6263z" stroke-width=".4458"/>
        <path class="primary" d="m220.95 81.331q-1.9687 0.51356-3.7661 0.77034-1.7119 0.25678-3.5949 0.25678-6.1628 0-8.9874-2.739-2.739-2.739-2.739-8.645v-26.106h-2.9958q-2.0542 0-2.0542-1.9687v-4.8788h5.2212l0.42797-11.298h5.9916q2.0542 0 2.0542 1.9687v9.3297h8.3882q0.94153 0 1.4551 0.51356 0.59916 0.51356 0.59916 1.4551v4.8788h-10.442v25.678q0 2.311 0.77035 3.5949 0.77034 1.2839 3.0814 1.2839 1.4551 0 2.3966 0 1.0271-0.08559 1.8831-0.08559 2.311 0 2.311 1.9687z" stroke-width=".4458"/>
        <path class="primary" d="m178.11 60.788q-2.5678 0-4.2797 0.59916-1.7119 0.51356-2.739 1.5407-0.94153 0.94153-1.3695 2.311-0.34237 1.3695-0.34237 2.9958 0 3.9373 1.8831 5.7348t5.7348 1.7975q3.4238 0 5.906-1.2839 2.4822-1.3695 4.2797-3.0814v-10.614zm-3.3382 21.57q-6.6763 0-9.9289-3.6805t-3.2526-10.186q0-4.0229 1.1983-6.6763 1.2839-2.6534 3.5093-4.1941 2.311-1.6263 5.3924-2.2254 3.0814-0.68475 6.6763-0.68475h8.8162v-2.9102q0-4.4509-2.311-6.0772t-7.8746-1.6263q-3.7661 0-6.7619 0.42797-2.9958 0.34238-3.9373 0.34238-1.1127 0-1.6263-0.51356-0.42797-0.59916-0.42797-1.4551v-3.6805q2.9958-0.94153 6.7619-1.5407 3.7661-0.59916 7.7034-0.59916 4.8788 0 8.1314 1.1127 3.2526 1.0271 5.2212 2.9958t2.739 4.7933q0.85594 2.8246 0.85594 6.2483v29.359h-5.2212q-1.4551 0-1.7975-0.59916-0.34237-0.68475-0.51356-1.5407l-0.34237-2.5678q-2.2254 2.1398-5.3924 3.8517-3.0814 1.6263-7.6178 1.6263z" stroke-width=".4458"/>
        <path class="primary" d="m160.26 37.764q1.7119 0 2.311 0.59916 0.59915 0.51356 0.59915 1.4551v5.7348q-0.59915-0.08559-1.1983-0.08559t-1.1127 0q-3.5094 0-6.4195 1.1127-2.8246 1.1127-5.3068 3.7661v31.242h-6.5907q-2.0543 0-2.0543-1.9687v-41.599h5.2212q1.1127 0 1.6263 0.51356 0.51356 0.42797 0.77034 1.6263l0.34238 3.7661q1.9687-2.3966 5.05-4.2797 3.0814-1.8831 6.7619-1.8831z" stroke-width=".4458"/>
        <path class="primary" d="m117.84 29.803h-13.609q-2.0543 0-2.0543-1.9687v-5.5636h38.346q0.94153 0 1.4551 0.51356 0.59916 0.51356 0.59916 1.4551v5.5636h-15.749v51.784h-6.9331q-2.0542 0-2.0542-1.9687z" stroke-width=".4458"/>
    </g>
</svg>
