<?xml version="1.0" encoding="UTF-8"?>
<svg version="1.1" viewBox="0 0 1000 1000" xmlns="http://www.w3.org/2000/svg">
<g clip-path="url(#b)">
<rect width="1e3" height="1e3" fill="#fbfff5"/>
<g transform="matrix(.58333 0 0 .58333 150 150)">
<svg width="1200" height="1200" version="1.1" xmlns="http://www.w3.org/2000/svg" xmlns:svgjs="http://svgjs.dev/svgjs" xmlns:xlink="http://www.w3.org/1999/xlink">
<svg width="1200" height="1200" version="1.1" viewBox="0 0 317.5 317.5" xml:space="preserve" xmlns="http://www.w3.org/2000/svg"><defs><clipPath id="a"><path d="m56.407 49.85h119.13v129.21h-119.13z" clip-rule="evenodd" stroke-width="1.5281"/></clipPath><clipPath id="b"><rect width="1e3" height="1e3" rx="350" ry="350"/></clipPath></defs><path transform="matrix(-.40231 0 0 .41415 272.31 179.39)" d="m109.34 54.856c-13.904 4.9235-30.812 15.531-38.788 29.737-12.488 22.244-20.138 52.681-8.1268 76.097 6.2423 12.17 19.339 18.142 33.015 18.332 18.281 0.25362 39.255-9.875 53.425-23.134 13.637-12.76 23.561-36.601 25.627-49.823 2.1773-13.93 0.56416-19.04-1.3389-19.024-1.9031 0.01564 1.3881 29.704-30.799 62.106-16.358 16.466-40.242 23.393-59.335 15.976-8.792-3.4154-14.299-17.016-15.192-23.872-0.89233-6.8564-0.32894-20.529 6.6491-21.425 25.138-3.2295 51.945-6.1572 74.804-18.655 6.9527-3.8011 12.504-11.715 13.483-19.578 1.1716-9.4141-2.1194-21.26-9.9044-26.681-11.905-8.2903-29.846-4.8969-43.52-0.05461l-1e-5 4e-6zm23.931 3.2926c3.7925-0.02813 7.0564 0.62909 10.005 1.7312 5.8964 2.2041 9.6632 7.2497 11.477 12.645 1.8409 5.475 0.84348 11.994-1.5281 17.261-7.3575 16.34-56.818 22.983-75.966 25.161-13.136 1.4946 2.4411-24.595 11.029-34.375 8.5882-9.7797 21.68-16.764 31.806-20.043 5.0631-1.6397 9.3844-2.3531 13.177-2.3812z" clip-path="url(#a)" fill="#575b58"/><path d="m79.342 250.93q-0.94153 0-1.5407-0.51356-0.51356-0.51356-0.51356-1.4551v-26.962q0-4.4509-1.7975-6.334-1.7975-1.9686-5.1356-1.9686-3.2526 0-5.6492 1.3695-2.311 1.3695-3.7661 2.8246v33.039h-6.5907q-2.0543 0-2.0543-1.9687v-41.599h5.2212q0.94153 0 1.5407 0.42798 0.68475 0.42797 0.85594 1.7119l0.34237 2.6534q2.3966-2.6534 5.478-4.1941 3.167-1.5407 7.5323-1.5407 3.5949 0 6.5051 1.3695 2.9958 1.3695 4.5365 4.8788 2.0542-2.311 5.478-4.2797 3.4237-1.9687 8.5594-1.9687 5.9916 0 9.2441 3.5949 3.3382 3.5094 3.3382 11.298v29.615h-6.6763q-1.9686 0-1.9686-1.9687v-26.962q0-4.4509-1.7975-6.334-1.7975-1.9686-5.1356-1.9686-3.4237 0-5.8204 1.5407-2.3966 1.4551-3.8517 2.9102 0.25678 2.2254 0.25678 4.4509v28.332zm42.759-18.574q0.17119 3.4238 0.77034 5.8204 0.59917 2.3966 1.9687 3.9373 1.4551 1.4551 3.8517 2.1398 2.3966 0.68476 6.1627 0.68476 3.3382 0 6.0772-0.34237 2.739-0.34239 3.7661-0.34239 1.9686 0 1.9686 1.8831v3.5949q-2.0542 0.85594-5.6492 1.4551-3.5093 0.68475-8.1314 0.68475-4.8788 0-8.4738-1.1983t-5.9916-3.8517q-2.311-2.739-3.4237-7.0187-1.1127-4.3653-1.1127-10.528t1.1127-10.528q1.1127-4.3653 3.3382-7.1043 2.311-2.8246 5.6492-4.0229 3.3382-1.2839 7.789-1.2839 4.9644 0 8.1314 1.4551 3.167 1.3695 4.9644 3.7661 1.7975 2.3966 2.4822 5.6492 0.68475 3.167 0.68475 6.8475 0 2.4822-0.25678 4.7932t-0.68475 3.5094zm18.06-6.0772q0.0856-0.85595 0.0856-1.2839t0-1.1127q0-5.478-1.7119-8.217-1.6263-2.8246-6.5051-2.8246-2.9102 0-4.7933 0.94153-1.883 0.94153-2.9958 2.6534-1.1127 1.7119-1.6263 4.2797-0.42797 2.4822-0.51356 5.5636zm12.973 24.651q-2.0542 0-2.0542-1.9687v-41.599h5.2212q0.94153 0 1.5407 0.42798 0.68476 0.42797 0.85593 1.7119l0.34239 2.6534q5.3068-5.7348 13.609-5.7348 7.0187 0 10.014 4.1085 2.9958 4.0229 2.9958 10.785v29.615h-6.5907q-0.94153 0-1.5407-0.51356-0.51356-0.51356-0.51356-1.4551v-26.962q0-4.4509-1.8831-6.334-1.8831-1.9686-5.478-1.9686-3.5093 0-5.9916 1.4551-2.4822 1.3695-3.9373 2.8246v32.954zm57.653-0.25678q-1.9686 0.51356-3.7661 0.77034-1.7119 0.25679-3.5949 0.25679-6.1628 0-8.9874-2.739-2.739-2.739-2.739-8.645v-26.106h-2.9958q-2.0542 0-2.0542-1.9686v-4.8789h5.2212l0.42796-11.298h5.9916q2.0542 0 2.0542 1.9687v9.3297h8.3882q0.94153 0 1.4551 0.51357 0.59915 0.51356 0.59915 1.4551v4.8788h-10.442v25.678q0 2.311 0.77034 3.5949 0.77035 1.2839 3.0814 1.2839 1.4551 0 2.3966 0 1.0271-0.0856 1.8831-0.0856 2.311 0 2.311 1.9686zm33.513-6.8475q2.739 0.34238 6.0772 0.68475 3.3382 0.25678 6.5051 0.25678 5.6492 0 7.6178-1.4551 1.9687-1.4551 1.9687-4.6221 0-1.4551-0.42797-2.3966-0.34239-1.0271-1.3695-1.7119-1.0271-0.77035-2.8246-1.3695-1.7119-0.59916-4.4509-1.2839-2.9958-0.77034-5.5636-1.5407-2.4822-0.85594-4.2797-2.2254-1.7975-1.3695-2.8246-3.4238-0.94153-2.1398-0.94153-5.478 0-6.9331 4.0229-9.8433 4.0229-2.9958 11.298-2.9958 1.4551 0 3.167 0.17119 1.7119 0.0856 3.3382 0.34237 1.6263 0.17119 2.9958 0.51356 1.4551 0.2568 2.3966 0.59917 0.94153 0.42797 1.2839 0.94153 0.42797 0.51356 0.42797 1.6263v3.6805q-3.8517-0.42797-6.7619-0.59915-2.8246-0.25678-5.1356-0.25678-4.8789 0-6.8475 1.2839-1.8831 1.2839-1.8831 4.1085 0 1.5407 0.51356 2.5678 0.51356 0.94154 1.6263 1.6263t2.9102 1.2839q1.7975 0.51357 4.2797 1.1127 2.9102 0.77034 5.3924 1.6263 2.4822 0.77034 4.2797 2.1398 1.7975 1.2839 2.739 3.5094 1.0271 2.1398 1.0271 5.5636 0 3.7661-1.1983 6.4195-1.1127 2.5678-3.2526 4.1941-2.1398 1.6263-5.1356 2.311-2.9102 0.68475-6.5051 0.68475-1.5407 0-3.4238-0.17118-1.7975-0.0856-3.5949-0.34238-1.7975-0.25678-3.3382-0.51356-1.5407-0.34238-2.3966-0.68475-1.0271-0.42797-1.3695-1.0271-0.34238-0.68476-0.34238-1.6263z" fill="#575b58" stroke-width=".4458" aria-label="mentœs"/><path d="m52.396 153.68h-13.609q-2.0543 0-2.0543-1.9687v-5.5636h38.346q0.94153 0 1.4551 0.51356 0.59916 0.51356 0.59916 1.4551v5.5636h-15.749v51.784h-6.9331q-2.0542 0-2.0542-1.9686zm42.417 7.9602q1.7119 0 2.311 0.59916 0.59915 0.51356 0.59915 1.4551v5.7348q-0.59915-0.0856-1.1983-0.0856t-1.1127 0q-3.5093 0-6.4195 1.1127-2.8246 1.1127-5.3068 3.7661v31.242h-6.5907q-2.0543 0-2.0543-1.9686v-41.599h5.2212q1.1127 0 1.6263 0.51356 0.51356 0.42797 0.77034 1.6263l0.34237 3.7661q1.9687-2.3966 5.05-4.2797 3.0814-1.8831 6.7619-1.8831zm17.852 23.025q-2.5678 0-4.2797 0.59915-1.7119 0.51357-2.739 1.5407-0.94153 0.94154-1.3695 2.311-0.34237 1.3695-0.34237 2.9958 0 3.9373 1.8831 5.7348 1.883 1.7975 5.7348 1.7975 3.4237 0 5.906-1.2839 2.4822-1.3695 4.2797-3.0814v-10.614zm-3.3382 21.57q-6.6763 0-9.9289-3.6805t-3.2526-10.186q0-4.0229 1.1983-6.6763 1.2839-2.6534 3.5093-4.1941 2.311-1.6263 5.3924-2.2254 3.0814-0.68476 6.6763-0.68476h8.8162v-2.9102q0-4.4509-2.311-6.0772t-7.8746-1.6263q-3.7661 0-6.7619 0.42797-2.9958 0.34237-3.9373 0.34237-1.1127 0-1.6263-0.51356-0.42797-0.59916-0.42797-1.4551v-3.6805q2.9958-0.94153 6.7619-1.5407 3.7661-0.59916 7.7034-0.59916 4.8788 0 8.1314 1.1127 3.2526 1.0271 5.2212 2.9958 1.9686 1.9686 2.739 4.7932 0.85593 2.8246 0.85593 6.2483v29.359h-5.2212q-1.4551 0-1.7975-0.59915-0.34238-0.68475-0.51357-1.5407l-0.34237-2.5678q-2.2254 2.1398-5.3924 3.8517-3.0814 1.6263-7.6178 1.6263zm46.183-1.0271q-1.9687 0.51356-3.7661 0.77036-1.7119 0.25678-3.5949 0.25678-6.1628 0-8.9874-2.739-2.739-2.739-2.739-8.645v-26.106h-2.9958q-2.0543 0-2.0543-1.9686v-4.8788h5.2212l0.42797-11.298h5.9916q2.0542 0 2.0542 1.9686v9.3297h8.3882q0.94153 0 1.4551 0.51356 0.59916 0.51357 0.59916 1.4551v4.8788h-10.442v25.678q0 2.311 0.77034 3.5949t3.0814 1.2839q1.4551 0 2.3966 0 1.0271-0.0856 1.8831-0.0856 2.311 0 2.311 1.9687zm16.825-20.542q-2.5678 0-4.2797 0.59915-1.7119 0.51357-2.739 1.5407-0.94153 0.94154-1.3695 2.311-0.34237 1.3695-0.34237 2.9958 0 3.9373 1.8831 5.7348t5.7348 1.7975q3.4238 0 5.906-1.2839 2.4822-1.3695 4.2797-3.0814v-10.614zm-3.3382 21.57q-6.6763 0-9.9289-3.6805t-3.2526-10.186q0-4.0229 1.1983-6.6763 1.2839-2.6534 3.5094-4.1941 2.311-1.6263 5.3924-2.2254 3.0814-0.68476 6.6763-0.68476h8.8162v-2.9102q0-4.4509-2.311-6.0772t-7.8746-1.6263q-3.7661 0-6.7619 0.42797-2.9958 0.34237-3.9373 0.34237-1.1127 0-1.6263-0.51356-0.42798-0.59916-0.42798-1.4551v-3.6805q2.9958-0.94153 6.7619-1.5407 3.7661-0.59916 7.7034-0.59916 4.8788 0 8.1314 1.1127 3.2526 1.0271 5.2212 2.9958 1.9687 1.9686 2.739 4.7932 0.85593 2.8246 0.85593 6.2483v29.359h-5.2212q-1.4551 0-1.7975-0.59915-0.34238-0.68475-0.51356-1.5407l-0.34238-2.5678q-2.2254 2.1398-5.3924 3.8517-3.0814 1.6263-7.6178 1.6263z" fill="#575b58" stroke-width=".4458" aria-label="Trata"/><g transform="matrix(-.78126 0 0 .82422 246.4 -6.7019)"><path d="m109.34 54.856c-13.904 4.9235-30.812 15.531-38.788 29.737-12.488 22.244-20.138 52.681-8.1268 76.097 6.2423 12.17 19.339 18.142 33.015 18.332 18.281 0.25362 39.255-9.875 53.425-23.134 13.637-12.76 23.561-36.601 25.627-49.823 2.1773-13.93 0.56416-19.04-1.3389-19.024-1.9031 0.01564 1.3881 29.704-30.799 62.106-16.358 16.466-40.242 23.393-59.335 15.976-8.792-3.4154-14.299-17.016-15.192-23.872-0.89233-6.8564-0.32894-20.529 6.6491-21.425 25.138-3.2295 51.945-6.1572 74.804-18.655 6.9527-3.8011 12.504-11.715 13.483-19.578 1.1716-9.4141-2.1194-21.26-9.9044-26.681-11.905-8.2903-29.846-4.8969-43.52-0.05461l-1e-5 4e-6zm23.931 3.2926c3.7925-0.02813 7.0564 0.62909 10.005 1.7312 5.8964 2.2041 9.6632 7.2497 11.477 12.645 1.8409 5.475 0.84348 11.994-1.5281 17.261-7.3575 16.34-56.818 22.983-75.966 25.161-13.136 1.4946 2.4411-24.595 11.029-34.375 8.5882-9.7797 21.68-16.764 31.806-20.043 5.0631-1.6397 9.3844-2.3531 13.177-2.3812z" fill="#575b58"/><path d="m146.21 80.158c0 1.8588-0.35418 3.6469-1.0625 5.3642-0.70836 1.7173-1.717 3.2332-3.0258 4.5476-1.3089 1.3144-2.8184 2.3272-4.5284 3.0386-1.7101 0.71134-3.4906 1.067-5.3416 1.067-1.851-9e-6 -3.6316-0.35568-5.3417-1.067-1.7101-0.71134-3.2196-1.7242-4.5284-3.0386s-2.3175-2.8302-3.0258-4.5476c-0.70834-1.7173-1.0625-3.5054-1.0625-5.3642-2e-5 -1.8588 0.35415-3.6469 1.0625-5.3642 0.70834-1.7173 1.717-3.2332 3.0258-4.5476 1.3089-1.3144 2.8183-2.3273 4.5284-3.0386 1.7101-0.71134 3.4906-1.067 5.3417-1.067 1.851 0 3.6315 0.35567 5.3416 1.067 1.7101 0.71134 3.2196 1.7242 4.5284 3.0386s2.3174 2.8302 3.0258 4.5476c0.70835 1.7173 1.0625 3.5054 1.0625 5.3642z" fill="#dfe9ce"/><path d="m109.47 145.52c0 1.8588-0.35418 3.6469-1.0625 5.3642s-1.717 3.2332-3.0258 4.5476-2.8183 2.3272-4.5284 3.0386c-1.7101 0.71134-3.4906 1.067-5.3416 1.067-1.851-2e-5 -3.6316-0.3557-5.3417-1.067-1.7101-0.71133-3.2196-1.7242-4.5284-3.0386-1.3089-1.3144-2.3175-2.8302-3.0258-4.5476-0.70834-1.7173-1.0625-3.5054-1.0625-5.3642s0.35417-3.6469 1.0625-5.3642c0.70834-1.7173 1.7169-3.2332 3.0258-4.5476 1.3088-1.3144 2.8183-2.3272 4.5284-3.0386 1.7101-0.71134 3.4906-1.067 5.3417-1.067 1.851 0 3.6315 0.35566 5.3416 1.067s3.2196 1.7242 4.5284 3.0386c1.3089 1.3144 2.3175 2.8302 3.0258 4.5476 0.70835 1.7173 1.0625 3.5054 1.0625 5.3642z" fill="#575b58"/></g></svg>
</svg>
</g>
</g>
</svg>
